<svg width="84" height="72" viewBox="0 0 84 72" xmlns="http://www.w3.org/2000/svg"><path d="M41.772.002c-1.56.07-3.047.957-3.827 2.268L.6 65.2c-.78 1.38-.78 3.152.034 4.534.815 1.382 2.41 2.268 4.04 2.268h74.622c1.63 0 3.224-.886 4.074-2.268.815-1.382.815-3.153 0-4.535L46.024 2.27c-.85-1.418-2.55-2.34-4.252-2.268zm.213 18.992c2.763 0 4.996 2.232 4.996 4.996l-.992 18c0 2.232-1.77 4.004-4.003 4.004-2.197 0-4.004-1.772-4.004-4.004l-.992-18c0-2.764 2.233-4.996 4.997-4.996zm0 30.012c3.33 0 6.023 2.693 6.023 5.988 0 3.33-2.693 6.024-6.023 6.024-3.296 0-5.99-2.693-5.99-6.024 0-3.295 2.694-5.988 5.99-5.988z" fill-rule="nonzero" fill="#000"/></svg>
