<svg xmlns:dc="http://purl.org/dc/elements/1.1/" xmlns:cc="http://creativecommons.org/ns#" xmlns:rdf="http://www.w3.org/1999/02/22-rdf-syntax-ns#" xmlns:svg="http://www.w3.org/2000/svg" xmlns="http://www.w3.org/2000/svg" xmlns:sodipodi="http://sodipodi.sourceforge.net/DTD/sodipodi-0.dtd" xmlns:inkscape="http://www.inkscape.org/namespaces/inkscape" version="1.1" x="0px" y="0px" viewBox="0 0 100 125"><g transform="translate(0,-952.36218)"><g transform="translate(7.9963462,966.32866)"><path d="M 41.77559,0.03543307 C 40.216535,0.10629921 38.728346,0.99212595 37.948819,2.3031495 L 0.6023622,65.232282 c -0.77952755,1.381889 -0.77952755,3.153543 0.0354331,4.535432 0.8149606,1.38189 2.4094488,2.267717 4.03937,2.267717 l 74.6220467,0 c 1.629921,0 3.224409,-0.885827 4.074803,-2.267717 0.814961,-1.381889 0.814961,-3.153543 0,-4.535432 L 46.027559,2.3031495 C 45.177165,0.88582675 43.476378,-0.03543307 41.77559,0.03543307 z M 41.988189,19.027558 c 2.763779,0 4.996063,2.232284 4.996063,4.996063 l -0.992126,18 c 0,2.232283 -1.771654,4.003937 -4.003937,4.003937 -2.196851,0 -4.003937,-1.771654 -4.003937,-4.003937 l -0.992126,-18 c 0,-2.763779 2.232283,-4.996063 4.996063,-4.996063 z m 0,30.011811 c 3.330708,0 6.023622,2.692913 6.023622,5.988188 0,3.330709 -2.692914,6.023622 -6.023622,6.023622 C 38.692913,61.051179 36,58.358266 36,55.027557 c 0,-3.295275 2.692913,-5.988188 5.988189,-5.988188 z" style="" fill="#000000" fill-opacity="1" fill-rule="nonzero" stroke="none"/></g></g></svg>