<svg class="menu-button only-mobile" version="1.1" id="Layer_1" xmlns="https://www.w3.org/2000/svg" xmlns:xlink="https://www.w3.org/1999/xlink" x="0px" y="0px" viewBox="0 0 100 100" xml:space="preserve"> <path id="XMLID_3_" d="M8.1,72.8h6.2l4.7,13.7H19l4.4-13.7h6.2v20h-4.1V78.6h-0.1l-4.9,14.2h-3.4l-4.9-14h-0.1v14H8.1V72.8z"></path> <path id="XMLID_9_" d="M34.4,72.8h15v3.7H38.8v4.3h9.7v3.4h-9.7v4.9h10.8v3.7H34.4V72.8z"></path> <path id="XMLID_11_" d="M53.4,72.8h4.4l8.3,13.4h0.1V72.8h4.1v20h-4.4l-8.3-13.4h-0.1v13.4h-4.1V72.8z"></path> <path id="XMLID_13_" d="M92,85.2c0,2.7-0.8,4.7-2.3,6s-3.6,2-6.3,2c-2.7,0-4.8-0.7-6.3-2C75.7,90,75,88,75,85.2V72.8h4.4v12.4 c0,0.5,0,1.1,0.1,1.6s0.3,1,0.6,1.4c0.3,0.4,0.7,0.7,1.2,1c0.5,0.2,1.2,0.4,2.1,0.4c1.6,0,2.7-0.4,3.2-1c0.6-0.7,0.9-1.8,0.9-3.3 V72.8H92V85.2z"></path> <rect id="XMLID_1_" x="6.1" y="7.5" width="87.7" height="11.2"></rect> <rect id="XMLID_6_" x="6.1" y="29.8" width="87.7" height="11.2"></rect> <rect id="XMLID_8_" x="6.1" y="52.2" width="87.7" height="11.2"></rect> </svg>