<svg width="88px" height="87px" viewBox="6 7 88 87" version="1.1" xmlns="http://www.w3.org/2000/svg" xmlns:xlink="http://www.w3.org/1999/xlink">
    <!-- Generator: Sketch 41.2 (35397) - http://www.bohemiancoding.com/sketch -->
    <desc>Created with Sketch.</desc>
    <defs></defs>
    <g id="menu" stroke="none" stroke-width="1" fill="none" fill-rule="evenodd" transform="translate(6.000000, 7.000000)">
        <polygon id="XMLID_3_" fill="#000000" points="2.1 65.8 8.3 65.8 13 79.5 13 79.5 17.4 65.8 23.6 65.8 23.6 85.8 19.5 85.8 19.5 71.6 19.4 71.6 14.5 85.8 11.1 85.8 6.2 71.8 6.1 71.8 6.1 85.8 2.1 85.8"></polygon>
        <polygon id="XMLID_9_" fill="#000000" points="28.4 65.8 43.4 65.8 43.4 69.5 32.8 69.5 32.8 73.8 42.5 73.8 42.5 77.2 32.8 77.2 32.8 82.1 43.6 82.1 43.6 85.8 28.4 85.8"></polygon>
        <polygon id="XMLID_11_" fill="#000000" points="47.4 65.8 51.8 65.8 60.1 79.2 60.2 79.2 60.2 65.8 64.3 65.8 64.3 85.8 59.9 85.8 51.6 72.4 51.5 72.4 51.5 85.8 47.4 85.8 47.4 65.8"></polygon>
        <path d="M86,78.2 C86,80.9 85.2,82.9 83.7,84.2 C82.2,85.5 80.1,86.2 77.4,86.2 C74.7,86.2 72.6,85.5 71.1,84.2 C69.7,83 69,81 69,78.2 L69,65.8 L73.4,65.8 L73.4,78.2 C73.4,78.7 73.4,79.3 73.5,79.8 C73.6,80.3 73.8,80.8 74.1,81.2 C74.4,81.6 74.8,81.9 75.3,82.2 C75.8,82.4 76.5,82.6 77.4,82.6 C79,82.6 80.1,82.2 80.6,81.6 C81.2,80.9 81.5,79.8 81.5,78.3 L81.5,65.8 L86,65.8 L86,78.2 Z" id="XMLID_13_" fill="#000000"></path>
        <rect id="XMLID_1_" fill="#000000" x="0.1" y="0.5" width="87.7" height="11.2"></rect>
        <rect id="XMLID_6_" fill="#000000" x="0.1" y="22.8" width="87.7" height="11.2"></rect>
        <rect id="XMLID_8_" fill="#000000" x="0.1" y="45.2" width="87.7" height="11.2"></rect>
    </g>
</svg>